<svg xmlns="http://www.w3.org/2000/svg" data-name="Layer 1" viewBox="0 0 100 125" x="0px" y="0px"><title>Artboard 29</title><path d="M93.73,10H46.79a5.39,5.39,0,0,0-5.39,5.39l-.05,2.26H23a5.79,5.79,0,0,0-4.89,2.68L2.35,45.11A9.45,9.45,0,0,0,.88,50.19v24A5.36,5.36,0,0,0,6.25,79.6h6.67A14.53,14.53,0,0,0,26.85,90,14.36,14.36,0,0,0,40.78,79.6H58.2A14.53,14.53,0,0,0,72.13,90,14.36,14.36,0,0,0,86.06,79.6h7.69a5.36,5.36,0,0,0,5.37-5.37V15.35A5.39,5.39,0,0,0,93.73,10ZM26.85,81.57a6.13,6.13,0,0,1-6-6,6,6,0,0,1,6-6,6.13,6.13,0,0,1,6,6A6.05,6.05,0,0,1,26.85,81.57Zm9.42-36.3a1.33,1.33,0,0,1-1.33,1.33H13.68a1.33,1.33,0,0,1-1.12-2L23.72,27a1.33,1.33,0,0,1,1.12-.62H34.95a1.33,1.33,0,0,1,1.33,1.33ZM72.13,81.53a6,6,0,1,1,0-12,6.09,6.09,0,0,1,6,6A6,6,0,0,1,72.13,81.53Z"/><text x="0" y="115" fill="#000000" font-size="5px" font-weight="bold" font-family="'Helvetica Neue', Helvetica, Arial-Unicode, Arial, Sans-serif">Created by Gregor Cresnar</text><text x="0" y="120" fill="#000000" font-size="5px" font-weight="bold" font-family="'Helvetica Neue', Helvetica, Arial-Unicode, Arial, Sans-serif">from the Noun Project</text></svg>